<svg width="36" height="36" viewBox="0 0 36 36" fill="none" xmlns="http://www.w3.org/2000/svg">
<g clip-path="url(#clip0_0_2842)">
<path d="M4 5C2.93913 5 1.92172 5.42143 1.17157 6.17157C0.421427 6.92172 0 7.93913 0 9L0 27C0 28.0609 0.421427 29.0783 1.17157 29.8284C1.92172 30.5786 2.93913 31 4 31H10V5H4ZM32 5H26V31H32C33.0609 31 34.0783 30.5786 34.8284 29.8284C35.5786 29.0783 36 28.0609 36 27V9C36 7.93913 35.5786 6.92172 34.8284 6.17157C34.0783 5.42143 33.0609 5 32 5Z" fill="#D52B1E"/>
<path d="M10 5H26V31H10V5Z" fill="#EEEEEE"/>
<path d="M18.6151 22.1131C19.8131 22.2521 20.8871 22.3771 22.0841 22.5141L21.7791 21.5121C21.7567 21.4258 21.7598 21.335 21.788 21.2505C21.8162 21.166 21.8684 21.0915 21.9381 21.0361L25.4171 18.2021L24.6971 17.8631C24.3801 17.7501 24.4671 17.5711 24.5821 17.1411L25.1131 15.2051L23.0921 15.6321C22.8951 15.6621 22.7641 15.5371 22.7341 15.4171L22.4731 14.5061L20.8751 16.3001C20.6481 16.5881 20.1881 16.5881 20.3311 15.9241L21.0141 12.2901L20.0971 12.7651C19.8401 12.9091 19.5831 12.9331 19.4401 12.6761L18.1751 10.3101L16.9101 12.6761C16.7661 12.9331 16.5091 12.9091 16.2521 12.7651L15.3361 12.2901L16.0191 15.9241C16.1631 16.5881 15.7021 16.5881 15.4751 16.3001L13.8771 14.5071L13.6171 15.4181C13.5871 15.5381 13.4551 15.6631 13.2581 15.6331L11.2371 15.2061L11.7681 17.1421C11.8811 17.5721 11.9691 17.7511 11.6521 17.8641L10.9321 18.2031L14.4111 21.0371C14.5491 21.1441 14.6191 21.3371 14.5691 21.5131L14.2641 22.5151L17.7341 22.1141C17.8401 22.1141 17.9101 22.1731 17.9091 22.2951L17.6951 25.9991H18.6511L18.4381 22.2951C18.4401 22.1721 18.5091 22.1131 18.6151 22.1131Z" fill="#D52B1E"/>
</g>
<defs>
<clipPath id="clip0_0_2842">
<rect width="36" height="36" fill="white"/>
</clipPath>
</defs>
</svg>
