<svg width="44" height="38" viewBox="0 0 44 38" fill="none" xmlns="http://www.w3.org/2000/svg">
<path d="M36.5999 10.6589V21.3677C36.5999 27.7721 33.0799 30.5168 27.7999 30.5168H10.2199C9.31991 30.5168 8.45991 30.4337 7.65991 30.2466C7.15991 30.1634 6.67993 30.0179 6.23993 29.8515C3.23993 28.6871 1.41992 25.9839 1.41992 21.3677V10.6589C1.41992 4.25445 4.93991 1.50977 10.2199 1.50977H27.7999C32.2799 1.50977 35.4999 3.48515 36.3599 7.99737C36.4999 8.82912 36.5999 9.68159 36.5999 10.6589Z" stroke="#16780D" stroke-width="1.5" stroke-miterlimit="10" stroke-linecap="round" stroke-linejoin="round"/>
<path d="M42.6021 16.8972V27.606C42.6021 34.0104 39.0821 36.7551 33.8021 36.7551H16.2221C14.7421 36.7551 13.4021 36.5473 12.2421 36.0898C9.86213 35.1749 8.24211 33.2827 7.66211 30.2468C8.46211 30.4339 9.32211 30.517 10.2221 30.517H27.8021C33.0821 30.517 36.6021 27.7723 36.6021 21.3679V10.6591C36.6021 9.68178 36.5221 8.80851 36.3621 7.99756C40.1621 8.8293 42.6021 11.6156 42.6021 16.8972Z" stroke="#16780D" stroke-width="1.5" stroke-miterlimit="10" stroke-linecap="round" stroke-linejoin="round"/>
<path d="M18.9968 21.513C21.9129 21.513 24.2769 19.0553 24.2769 16.0235C24.2769 12.9917 21.9129 10.5339 18.9968 10.5339C16.0808 10.5339 13.7168 12.9917 13.7168 16.0235C13.7168 19.0553 16.0808 21.513 18.9968 21.513Z" stroke="#16780D" stroke-width="1.5" stroke-miterlimit="10" stroke-linecap="round" stroke-linejoin="round"/>
<path d="M7.56006 11.4492V20.5985" stroke="#16780D" stroke-width="1.5" stroke-miterlimit="10" stroke-linecap="round" stroke-linejoin="round"/>
<path d="M30.4434 11.4497V20.599" stroke="#16780D" stroke-width="1.5" stroke-miterlimit="10" stroke-linecap="round" stroke-linejoin="round"/>
</svg>
