<svg width="56" height="57" viewBox="0 0 56 57" fill="none" xmlns="http://www.w3.org/2000/svg">
<path d="M26.25 19.3533V26.0266L23.8933 25.2099C22.7033 24.7899 21.98 24.3933 21.98 22.3633C21.98 20.7066 23.2166 19.3533 24.7333 19.3533H26.25Z" fill="#CCC6C6"/>
<path d="M34.02 34.6367C34.02 36.2934 32.7833 37.6467 31.2667 37.6467H29.75V30.9734L32.1067 31.7901C33.2967 32.2101 34.02 32.6067 34.02 34.6367Z" fill="#CCC6C6"/>
<path d="M37.7768 5.16675H18.2234C9.73008 5.16675 4.66675 10.2301 4.66675 18.7234V38.2768C4.66675 46.7701 9.73008 51.8334 18.2234 51.8334H37.7768C46.2701 51.8334 51.3334 46.7701 51.3334 38.2768V18.7234C51.3334 10.2301 46.2701 5.16675 37.7768 5.16675ZM33.2734 28.5001C35.0934 29.1301 37.5201 30.4601 37.5201 34.6368C37.5201 38.2301 34.7201 41.1468 31.2667 41.1468H29.7501V42.5001C29.7501 43.4567 28.9567 44.2501 28.0001 44.2501C27.0434 44.2501 26.2501 43.4567 26.2501 42.5001V41.1468H25.4101C21.5834 41.1468 18.4801 37.9034 18.4801 33.9368C18.4801 32.9801 19.2501 32.1868 20.2301 32.1868C21.1867 32.1868 21.9801 32.9801 21.9801 33.9368C21.9801 35.9901 23.5201 37.6468 25.4101 37.6468H26.2501V29.7367L22.7267 28.5001C20.9067 27.8701 18.4801 26.5401 18.4801 22.3634C18.4801 18.7701 21.2801 15.8534 24.7334 15.8534H26.2501V14.5001C26.2501 13.5434 27.0434 12.7501 28.0001 12.7501C28.9567 12.7501 29.7501 13.5434 29.7501 14.5001V15.8534H30.5901C34.4167 15.8534 37.5201 19.0967 37.5201 23.0634C37.5201 24.0201 36.7501 24.8134 35.7701 24.8134C34.8134 24.8134 34.0201 24.0201 34.0201 23.0634C34.0201 21.0101 32.4801 19.3534 30.5901 19.3534H29.7501V27.2634L33.2734 28.5001Z" fill="#CCC6C6"/>
</svg>
