<svg width="56" height="57" viewBox="0 0 56 57" fill="none" xmlns="http://www.w3.org/2000/svg">
<path d="M40.9034 18.6301C40.7401 18.6067 40.5768 18.6067 40.4134 18.6301C36.7968 18.5134 33.9268 15.5501 33.9268 11.9101C33.9268 8.20008 36.9368 5.16675 40.6701 5.16675C44.3801 5.16675 47.4134 8.17675 47.4134 11.9101C47.3901 15.5501 44.5201 18.5134 40.9034 18.6301Z" fill="#CCC6C6"/>
<path d="M48.5101 34.8C45.8967 36.55 42.2334 37.2033 38.8501 36.76C39.7367 34.8466 40.2034 32.7233 40.2267 30.4833C40.2267 28.15 39.7134 25.9333 38.7334 23.9966C42.1867 23.53 45.8501 24.1833 48.4867 25.9333C52.1734 28.36 52.1734 32.35 48.5101 34.8Z" fill="#CCC6C6"/>
<path d="M15.0267 18.6301C15.19 18.6067 15.3534 18.6067 15.5167 18.6301C19.1334 18.5134 22.0034 15.5501 22.0034 11.9101C22.0034 8.17675 18.9934 5.16675 15.26 5.16675C11.55 5.16675 8.54004 8.17675 8.54004 11.9101C8.54004 15.5501 11.41 18.5134 15.0267 18.6301Z" fill="#CCC6C6"/>
<path d="M15.2834 30.4833C15.2834 32.7466 15.7734 34.8932 16.66 36.8299C13.37 37.1799 9.94003 36.4799 7.42003 34.8232C3.73336 32.3733 3.73336 28.3832 7.42003 25.9332C9.9167 24.2532 13.44 23.5766 16.7534 23.9499C15.7967 25.9099 15.2834 28.1266 15.2834 30.4833Z" fill="#CCC6C6"/>
<path d="M28.28 37.53C28.0933 37.5067 27.8833 37.5067 27.6733 37.53C23.38 37.39 19.95 33.8667 19.95 29.5267C19.9733 25.0933 23.5433 21.5 28 21.5C32.4333 21.5 36.0266 25.0933 36.0266 29.5267C36.0033 33.8667 32.5966 37.39 28.28 37.53Z" fill="#CCC6C6"/>
<path d="M20.6967 42.3599C17.1734 44.7166 17.1734 48.5899 20.6967 50.9232C24.71 53.6066 31.29 53.6066 35.3034 50.9232C38.8267 48.5666 38.8267 44.6932 35.3034 42.3599C31.3134 39.6766 24.7334 39.6766 20.6967 42.3599Z" fill="#CCC6C6"/>
</svg>
