<svg width="25" height="25" viewBox="0 0 25 25" fill="none" xmlns="http://www.w3.org/2000/svg">
<path d="M16.2934 3.0367L7.26344 6.0367C1.19344 8.0667 1.19344 11.3767 7.26344 13.3967L9.94344 14.2867L10.8334 16.9667C12.8534 23.0367 16.1734 23.0367 18.1934 16.9667L21.2034 7.9467C22.5434 3.8967 20.3434 1.6867 16.2934 3.0367ZM16.6134 8.4167L12.8134 12.2367C12.6634 12.3867 12.4734 12.4567 12.2834 12.4567C12.0934 12.4567 11.9034 12.3867 11.7534 12.2367C11.4634 11.9467 11.4634 11.4667 11.7534 11.1767L15.5534 7.3567C15.8434 7.0667 16.3234 7.0667 16.6134 7.3567C16.9034 7.6467 16.9034 8.1267 16.6134 8.4167Z" fill="#3F4951"/>
</svg>
